<?xml version="1.0" standalone="no"?>
<!DOCTYPE svg PUBLIC "-//W3C//DTD SVG 20010904//EN"
 "http://www.w3.org/TR/2001/REC-SVG-20010904/DTD/svg10.dtd">
<svg version="1.0" xmlns="http://www.w3.org/2000/svg"
 width="200.000000pt" height="200.000000pt" viewBox="0 0 200.000000 200.000000"
 preserveAspectRatio="xMidYMid meet">
<metadata>
Created by potrace 1.11, written by Peter Selinger 2001-2013
</metadata>
<g transform="translate(0.000000,200.000000) scale(0.100000,-0.100000)"
fill="#000000" stroke="none">
<path d="M987 1649 c-11 -7 -16 -20 -15 -39 1 -15 -13 -62 -32 -103 -28 -59
-40 -76 -60 -80 -29 -6 -233 80 -224 94 3 5 -6 20 -21 35 -19 19 -31 23 -48
18 -47 -15 -60 -61 -27 -94 19 -19 37 -21 72 -6 10 5 39 -3 75 -19 32 -15 74
-33 93 -41 30 -12 35 -19 35 -47 0 -25 -11 -44 -52 -86 -48 -50 -53 -53 -80
-43 -29 10 -63 0 -103 -28 -22 -16 -147 42 -162 75 -23 50 -88 39 -88 -15 0
-36 32 -57 64 -42 32 14 168 -54 173 -87 2 -14 8 -30 14 -38 9 -10 2 -27 -27
-72 -21 -33 -47 -62 -56 -65 -40 -10 -29 -66 13 -66 12 0 21 10 25 28 4 15 23
53 43 84 28 45 40 56 55 52 10 -4 36 -1 57 6 35 12 40 11 78 -16 24 -18 41
-37 41 -49 0 -60 71 -87 107 -42 12 15 51 33 118 53 l100 31 27 -20 c18 -14
36 -18 60 -15 28 5 41 -1 80 -34 26 -21 48 -49 50 -61 2 -17 10 -22 32 -22 58
0 61 69 3 70 -15 1 -43 16 -66 37 -33 29 -40 42 -39 70 1 40 -15 75 -40 82
-16 5 -18 19 -19 126 0 104 2 120 16 120 9 0 53 -22 98 -49 75 -43 89 -57 154
-147 39 -54 75 -109 80 -121 10 -27 37 -30 46 -7 4 10 -2 23 -14 33 -20 16
-139 179 -145 198 -5 17 118 113 144 113 13 0 29 5 36 12 19 19 14 56 -8 68
-30 16 -60 3 -67 -30 -3 -20 -27 -47 -70 -83 l-65 -55 -80 48 c-59 34 -84 55
-94 78 -7 18 -17 32 -21 33 -4 1 -22 2 -38 3 -35 2 -175 107 -175 131 0 21
-32 35 -53 24z m116 -126 c48 -37 77 -65 77 -77 0 -11 8 -28 18 -39 24 -27 26
-247 2 -247 -23 1 -243 200 -257 232 -11 25 -8 37 24 108 20 44 42 80 49 80 6
0 46 -26 87 -57z m-128 -219 c36 -30 129 -112 167 -145 26 -22 26 -26 14 -54
-12 -28 -24 -34 -109 -59 l-95 -28 -22 22 c-17 17 -29 21 -54 16 -26 -5 -40 0
-75 25 -34 26 -41 36 -37 55 3 12 2 34 -3 47 -8 21 -3 31 44 77 39 39 59 51
74 47 11 -2 28 1 38 9 24 18 23 18 58 -12z"/>
<path d="M355 810 c-13 -5 -34 -40 -59 -101 l-40 -93 -13 30 c-7 16 -26 59
-43 97 -28 64 -31 67 -64 67 l-34 0 59 -138 c60 -138 60 -138 92 -137 31 1 33
6 89 131 31 71 57 132 57 135 1 12 -23 17 -44 9z"/>
<path d="M448 812 c-12 -2 -18 -13 -19 -30 -1 -26 0 -215 1 -238 0 -7 14 -11
30 -10 l30 1 0 136 c0 142 -3 150 -42 141z"/>
<path d="M827 812 c-8 -2 -14 -14 -14 -27 0 -23 3 -25 43 -25 l44 0 1 -82 c2
-146 1 -143 29 -142 14 1 28 2 32 3 4 0 7 25 7 54 -1 28 -1 78 0 110 l1 57 43
0 c38 0 43 3 45 24 2 25 1 25 -107 28 -60 2 -115 2 -124 0z"/>
<path d="M559 800 c0 -5 -1 -57 -1 -115 0 -161 -2 -150 32 -151 31 -2 36 8 31
59 -2 13 5 17 31 17 27 -1 38 -8 59 -38 21 -31 32 -38 57 -37 18 0 32 2 32 5
-1 3 -13 22 -28 44 l-28 38 28 28 c44 44 32 117 -23 146 -32 16 -188 20 -190
4z m152 -50 c12 -7 19 -21 19 -41 0 -33 -23 -47 -75 -45 -29 1 -30 3 -31 49
l-1 47 34 0 c19 0 43 -5 54 -10z"/>
<path d="M1084 707 c2 -77 7 -109 20 -129 46 -70 186 -60 217 15 7 17 14 73
14 124 l1 93 -33 0 -33 0 0 -94 c0 -114 -11 -133 -75 -126 -35 4 -44 30 -45
128 l0 92 -34 0 -35 0 3 -103z"/>
<path d="M1472 793 c-14 -28 -112 -250 -112 -255 0 -3 14 -4 31 -3 30 2 49 18
49 43 0 14 -2 14 76 16 60 2 62 1 73 -29 9 -26 16 -31 45 -31 l34 0 -25 56
c-13 30 -40 92 -60 138 -34 79 -36 82 -69 82 -22 0 -36 -6 -42 -17z m62 -96
c22 -57 22 -57 -23 -55 l-38 1 15 49 c9 26 19 48 23 48 3 0 14 -19 23 -43z"/>
<path d="M1697 698 c1 -62 2 -124 2 -138 l1 -25 100 0 100 0 0 28 c0 27 0 27
-71 27 l-71 0 2 28 c1 15 2 64 1 110 l-1 82 -32 0 -33 0 2 -112z"/>
<path d="M1053 492 l-33 -3 0 -75 c0 -58 3 -74 14 -74 8 0 18 5 21 10 3 6 0
10 -8 10 -8 0 -13 9 -12 23 1 18 8 23 38 25 20 2 37 7 37 13 0 5 -10 7 -22 5
-34 -5 -57 10 -51 35 5 16 12 20 39 17 36 -3 56 7 27 13 -10 2 -33 3 -50 1z"/>
<path d="M720 481 c0 -4 11 -6 25 -3 25 4 25 3 25 -61 0 -36 5 -69 10 -72 6
-4 10 20 10 65 0 56 3 71 13 67 8 -3 20 -1 28 4 9 6 -8 9 -48 9 -35 0 -63 -4
-63 -9z"/>
<path d="M865 420 c1 -38 4 -73 8 -77 4 -3 7 6 7 20 0 22 4 27 26 27 16 0 34
-10 46 -26 11 -14 23 -23 26 -20 3 3 -2 14 -12 25 -15 16 -15 19 -1 31 22 18
19 67 -4 80 -11 5 -37 10 -58 10 l-39 0 1 -70z m96 38 c12 -18 11 -24 -6 -42
-24 -23 -69 -16 -73 12 -6 41 5 54 39 48 18 -2 36 -11 40 -18z"/>
<path d="M1163 418 c2 -68 3 -73 25 -74 12 -1 25 3 28 7 3 5 -4 9 -15 9 -16 0
-21 6 -21 25 0 23 4 25 42 25 23 0 38 3 34 8 -4 4 -22 7 -39 7 -27 0 -32 4
-35 26 -3 25 0 27 39 27 22 1 44 3 47 6 3 3 -20 6 -51 6 l-55 0 1 -72z"/>
<path d="M1070 349 c0 -5 14 -9 32 -9 37 0 34 7 -5 14 -15 2 -27 0 -27 -5z"/>
<path d="M1230 349 c0 -5 10 -9 22 -9 12 0 18 3 14 7 -10 11 -36 12 -36 2z"/>
</g>
</svg>
